# xmcd
# 
# Track frame offsets:
#     150
#     25160
#     41050
#     58747
#     77390
#     96287
#     113280
#     127310
#     145495
#     161575
#     177755
#     198180
#     217242
# 
# Disc length: 3150
# 
# Revision: 16
# Processed by: cddbd v1.5.2PL0 Copyright (c) Steve Scherf et al.
# Submitted via: fre:ac v1.0.31
# 
DISCID=b50c4c0d
DTITLE=Faith Hill - Breathe
DYEAR=1999
DGENRE=Pop
TTITLE0=What's In It for Me
TTITLE1=I Got My Baby
TTITLE2=Love Is a Sweet Thing
TTITLE3=Breathe
TTITLE4=Let's Make Love (with Tim McGraw)
TTITLE5=It Will Be Me
TTITLE6=The Way You Love Me
TTITLE7=If I'm Not In Love
TTITLE8=Bringing Out the Elvis
TTITLE9=If My Heart Had Wings
TTITLE10=If I Should Fall Behind
TTITLE11=That's How Love Moves
TTITLE12=There Will Come a Day
EXTD=
EXTT0=
EXTT1=
EXTT2=
EXTT3=
EXTT4=
EXTT5=
EXTT6=
EXTT7=
EXTT8=
EXTT9=
EXTT10=
EXTT11=
EXTT12=
PLAYORDER=
